<?xml version="1.0" encoding="UTF-8"?>
<!DOCTYPE svg PUBLIC "-//W3C//DTD SVG 1.1//EN" "http://www.w3.org/Graphics/SVG/1.1/DTD/svg11.dtd">
<svg xmlns="http://www.w3.org/2000/svg" version="1.1" width="144px" height="144px" style="shape-rendering:geometricPrecision; text-rendering:geometricPrecision; image-rendering:optimizeQuality; fill-rule:evenodd; clip-rule:evenodd" xmlns:xlink="http://www.w3.org/1999/xlink">
<g><path style="opacity:1" fill="#5c6abf" d="M 126.5,38.5 C 120.43,42.558 114.097,46.2247 107.5,49.5C 96.9927,34.0878 82.326,27.5878 63.5,30C 40.3043,36.8589 29.1376,52.3589 30,76.5C 30.8832,82.0363 32.3832,87.3696 34.5,92.5C 27.8333,95.8333 21.1667,99.1667 14.5,102.5C 14.3334,81.4974 14.5,60.4974 15,39.5C 16.518,37.652 18.3513,36.152 20.5,35C 34.9948,27.2535 49.3281,19.2535 63.5,11C 68.8333,7.66667 74.1667,7.66667 79.5,11C 95.5582,19.6887 111.225,28.8553 126.5,38.5 Z"/></g>
<g><path style="opacity:1" fill="#fcfcfd" d="M 107.5,49.5 C 101.666,53.9209 95.3322,57.5876 88.5,60.5C 86.1747,55.3533 82.1747,52.1866 76.5,51C 63.7037,49.1464 55.2037,54.3131 51,66.5C 49.6851,72.7942 50.8518,78.4608 54.5,83.5C 61.7224,92.6976 70.7224,94.8643 81.5,90C 84.6922,87.9718 87.3589,85.4718 89.5,82.5C 93.7802,84.6401 98.1136,86.8068 102.5,89C 104.692,90.0669 106.358,91.5669 107.5,93.5C 95.7409,110.15 79.7409,116.316 59.5,112C 48.8412,108.354 40.5078,101.854 34.5,92.5C 32.3832,87.3696 30.8832,82.0363 30,76.5C 29.1376,52.3589 40.3043,36.8589 63.5,30C 82.326,27.5878 96.9927,34.0878 107.5,49.5 Z"/></g>
<g><path style="opacity:1" fill="#3949ab" d="M 126.5,38.5 C 127.117,38.6107 127.617,38.944 128,39.5C 128.829,61.004 128.663,82.3373 127.5,103.5C 121.479,99.7336 115.313,96.0669 109,92.5C 108.617,93.056 108.117,93.3893 107.5,93.5C 106.358,91.5669 104.692,90.0669 102.5,89C 98.1136,86.8068 93.7802,84.6401 89.5,82.5C 83.3657,78.5959 77.0323,74.9292 70.5,71.5C 76.5,67.8333 82.5,64.1667 88.5,60.5C 95.3322,57.5876 101.666,53.9209 107.5,49.5C 114.097,46.2247 120.43,42.558 126.5,38.5 Z"/></g>
<g><path style="opacity:1" fill="#5d6cc0" d="M 88.5,60.5 C 82.5,64.1667 76.5,67.8333 70.5,71.5C 65.5273,74.3214 60.5273,77.1547 55.5,80C 54.6634,81.0113 54.33,82.1779 54.5,83.5C 50.8518,78.4608 49.6851,72.7942 51,66.5C 55.2037,54.3131 63.7037,49.1464 76.5,51C 82.1747,52.1866 86.1747,55.3533 88.5,60.5 Z"/></g>
<g><path style="opacity:1" fill="#2a3794" d="M 70.5,71.5 C 77.0323,74.9292 83.3657,78.5959 89.5,82.5C 87.3589,85.4718 84.6922,87.9718 81.5,90C 70.7224,94.8643 61.7224,92.6976 54.5,83.5C 54.33,82.1779 54.6634,81.0113 55.5,80C 60.5273,77.1547 65.5273,74.3214 70.5,71.5 Z"/></g>
<g><path style="opacity:0.973" fill="#293593" d="M 34.5,92.5 C 40.5078,101.854 48.8412,108.354 59.5,112C 79.7409,116.316 95.7409,110.15 107.5,93.5C 108.117,93.3893 108.617,93.056 109,92.5C 115.313,96.0669 121.479,99.7336 127.5,103.5C 125.599,105.796 123.266,107.629 120.5,109C 106.672,116.413 93.0049,124.08 79.5,132C 75.7824,134.298 71.7824,134.965 67.5,134C 50.8333,124.667 34.1667,115.333 17.5,106C 16.2899,104.961 15.2899,103.794 14.5,102.5C 21.1667,99.1667 27.8333,95.8333 34.5,92.5 Z"/></g>
</svg>
