<?xml version="1.0" encoding="UTF-8"?>
<svg version="1.1" xmlns="http://www.w3.org/2000/svg" width="144" height="144">
<path d="M0 0 C33.66 0 67.32 0 102 0 C102 7.34780715 101.94597684 14.36244909 101.265625 21.62402344 C101.18759644 22.50359711 101.10956787 23.38317078 101.0291748 24.28939819 C100.77447436 27.14653383 100.51232225 30.00293 100.25 32.859375 C100.07017319 34.86000466 99.89081901 36.86067685 99.71191406 38.86138916 C99.2431452 44.08954409 98.76801929 49.31710186 98.29150391 54.54455566 C97.80502984 59.89393697 97.32465752 65.24386591 96.84375 70.59375 C95.90175723 81.06304055 94.95303828 91.53170956 94 102 C92.74263927 102.47677827 91.48476604 102.95220507 90.22668457 103.42707825 C89.52626289 103.69197965 88.82584122 103.95688105 88.10419464 104.22980976 C83.01616182 106.09216277 77.78878116 107.54822035 72.59130859 109.0715332 C70.5018227 109.68696315 68.41709467 110.31704013 66.33203125 110.94726562 C64.9820396 111.34466416 63.6317873 111.74117856 62.28125 112.13671875 C61.07533203 112.49467529 59.86941406 112.85263184 58.62695312 113.22143555 C51.06778668 114.84409183 45.19222714 113.81743843 37.94140625 111.62890625 C37.1116478 111.38712143 36.28188934 111.14533661 35.42698669 110.89622498 C33.68853943 110.38756632 31.95157207 109.87382448 30.21606445 109.35522461 C27.548869 108.55842788 24.87754629 107.77695597 22.20507812 106.99804688 C20.51276369 106.50087444 18.82069694 106.00285797 17.12890625 105.50390625 C16.32796036 105.26845596 15.52701447 105.03300568 14.70179749 104.79042053 C9.11753245 103.11753245 9.11753245 103.11753245 8 102 C7.66507205 99.26959892 7.39025355 96.55461267 7.15209961 93.81518555 C7.07392502 92.95649368 6.99575043 92.09780182 6.91520691 91.21308899 C6.65629902 88.35469373 6.40410219 85.49575198 6.15234375 82.63671875 C5.97465357 80.64905158 5.79671747 78.66140639 5.61854553 76.67378235 C5.24489743 72.49331233 4.87461969 68.31256022 4.5065918 64.1315918 C4.03692498 58.79957524 3.55850109 53.46838842 3.07739925 48.137393 C2.70727046 44.02392238 2.34217922 39.91001596 1.97851753 35.79596901 C1.80430034 33.83244431 1.62849114 31.86906013 1.45100212 29.90582848 C1.20169705 27.14036389 0.95929004 24.37437218 0.71850586 21.6081543 C0.645271 20.81130219 0.57203613 20.01445007 0.49658203 19.19345093 C-0.05496224 12.72641406 0 6.56548839 0 0 Z " fill="#0277BD" transform="translate(21,15)"/>
<path d="M0 0 C17.82 0 35.64 0 54 0 C52.84857383 29.93708054 52.84857383 29.93708054 51.9375 44.125 C51.84541924 45.59633643 51.75362311 47.0676907 51.66210938 48.5390625 C51.44463311 52.02625024 51.22349663 55.51319225 51 59 C47.50882976 60.2146138 44.00604527 61.39158793 40.5 62.5625 C39.51773438 62.90474609 38.53546875 63.24699219 37.5234375 63.59960938 C27.68064373 66.84773132 21.1145406 65.31198453 11.5 61.9375 C10.67757812 61.65583984 9.85515625 61.37417969 9.0078125 61.08398438 C7.00282657 60.39622757 5.00106277 59.69908924 3 59 C3 53.39 3 47.78 3 42 C6.96 42 10.92 42 15 42 C15 44.64 15 47.28 15 50 C24.49064571 53.07804726 29.90621483 53.24376641 39 49 C39.33 44.71 39.66 40.42 40 36 C31.42 36 22.84 36 14 36 C13 32 13 32 13 24 C22.24 24 31.48 24 41 24 C41 20.04 41 16.08 41 12 C27.47 12 13.94 12 0 12 C0 8.04 0 4.08 0 0 Z " fill="#FCFDFE" transform="translate(45,39)"/>
<path d="M0 0 C13.53 0 27.06 0 41 0 C40.855625 3.361875 40.71125 6.72375 40.5625 10.1875 C40.51939697 11.23832764 40.47629395 12.28915527 40.43188477 13.37182617 C40.39377686 14.21205322 40.35566895 15.05228027 40.31640625 15.91796875 C40.27974854 16.77156982 40.24309082 17.6251709 40.20532227 18.50463867 C40 21 40 21 39.52294922 23.27624512 C38.95872234 26.21499264 38.6723581 29.09307438 38.42749023 32.07543945 C38.32746201 33.27630692 38.22743378 34.47717438 38.12437439 35.71443176 C37.96806297 37.64436226 37.96806297 37.64436226 37.80859375 39.61328125 C37.69817521 40.95137083 37.58749942 42.28943921 37.47657776 43.62748718 C37.18632703 47.13713196 36.89955793 50.64705273 36.61352539 54.15704346 C36.32063397 57.74354155 36.0244335 61.3297662 35.72851562 64.91601562 C35.14911416 71.94374704 34.57339225 78.97177553 34 86 C30.31280614 87.12600501 26.62519046 88.25062251 22.9375 89.375 C21.89916016 89.69210938 20.86082031 90.00921875 19.79101562 90.3359375 C17.76750376 90.95262683 15.74326962 91.56695199 13.71826172 92.17871094 C12.08801294 92.67127038 10.45898718 93.16794676 8.83251953 93.67285156 C5.67171646 94.62995455 3.36408029 95 0 95 C0 90.38 0 85.76 0 81 C3.24741067 79.82565961 6.49757549 78.66030021 9.75 77.5 C10.67039062 77.16613281 11.59078125 76.83226563 12.5390625 76.48828125 C13.42851563 76.17246094 14.31796875 75.85664062 15.234375 75.53125 C16.05131836 75.23798828 16.86826172 74.94472656 17.70996094 74.64257812 C20 74 20 74 24 74 C24.01981934 73.13648926 24.03963867 72.27297852 24.06005859 71.38330078 C24.51217824 52.51667283 25.38755631 33.81184305 27 15 C18.09 15 9.18 15 0 15 C0 10.05 0 5.1 0 0 Z " fill="#059BE4" transform="translate(72,24)"/>
<path d="M0 0 C3.96 0 7.92 0 12 0 C12 2.64 12 5.28 12 8 C12.78246094 8.20496094 13.56492187 8.40992187 14.37109375 8.62109375 C15.38300781 8.89050781 16.39492187 9.15992187 17.4375 9.4375 C18.44683594 9.70433594 19.45617187 9.97117187 20.49609375 10.24609375 C23 11 23 11 24 12 C24.07244053 14.01964199 24.08377188 16.04167124 24.0625 18.0625 C24.05347656 19.16722656 24.04445313 20.27195312 24.03515625 21.41015625 C24.02355469 22.26480469 24.01195313 23.11945313 24 24 C15.70994921 22.40016564 7.97972154 19.73179656 0 17 C0 11.39 0 5.78 0 0 Z " fill="#E7EAEC" transform="translate(48,81)"/>
<path d="M0 0 C8.91 0 17.82 0 27 0 C27 3.96 27 7.92 27 12 C18.09 12 9.18 12 0 12 C0 8.04 0 4.08 0 0 Z " fill="#EDEDED" transform="translate(45,39)"/>
<path d="M0 0 C4.29 0 8.58 0 13 0 C13 4.29 13 8.58 13 13 C3.8203125 17.00390625 3.8203125 17.00390625 1 18 C0.34 17.67 -0.32 17.34 -1 17 C-0.67 11.39 -0.34 5.78 0 0 Z " fill="#099DE5" transform="translate(72,75)"/>
<path d="M0 0 C4.62 0 9.24 0 14 0 C14 3.96 14 7.92 14 12 C9.38 12 4.76 12 0 12 C0 8.04 0 4.08 0 0 Z " fill="#039BE5" transform="translate(72,51)"/>
<path d="M0 0 C4.62 0 9.24 0 14 0 C14 3.96 14 7.92 14 12 C9.71 12 5.42 12 1 12 C-0.07396066 7.70415737 -0.07329796 4.39787789 0 0 Z " fill="#E9EBED" transform="translate(58,63)"/>
</svg>
