<?xml version="1.0" encoding="UTF-8"?>
<!DOCTYPE svg PUBLIC "-//W3C//DTD SVG 1.1//EN" "http://www.w3.org/Graphics/SVG/1.1/DTD/svg11.dtd">
<svg xmlns="http://www.w3.org/2000/svg" version="1.1" width="100px" height="100px" style="shape-rendering:geometricPrecision; text-rendering:geometricPrecision; image-rendering:optimizeQuality; fill-rule:evenodd; clip-rule:evenodd" xmlns:xlink="http://www.w3.org/1999/xlink">
<g><path style="opacity:0.914" fill="#000000" d="M 42.5,8.5 C 74.9737,8.13992 90.807,24.1399 90,56.5C 86.5004,74.3304 76.0004,85.1638 58.5,89C 59.4162,88.6258 60.2496,88.1258 61,87.5C 61.6667,82.8333 61.6667,78.1667 61,73.5C 60.3605,70.8877 59.1938,68.5543 57.5,66.5C 62.6146,64.5751 67.1146,61.5751 71,57.5C 74.5879,50.182 73.7546,43.3487 68.5,37C 69.998,32.9913 69.6646,29.1579 67.5,25.5C 63.5656,27.0534 59.7323,28.72 56,30.5C 51.6667,29.1667 47.3333,29.1667 43,30.5C 39.2677,28.72 35.4344,27.0534 31.5,25.5C 29.3101,28.9797 28.9768,32.6464 30.5,36.5C 28.7454,39.6792 27.2454,43.0125 26,46.5C 25.0688,52.3719 26.9021,57.2052 31.5,61C 34.9545,62.7501 38.2878,64.5834 41.5,66.5C 36.4757,76.8929 30.8091,77.0595 24.5,67C 23.8333,66.3333 23.1667,66.3333 22.5,67C 24.8654,70.071 26.8654,73.4044 28.5,77C 31.3508,78.2886 34.3508,78.7886 37.5,78.5C 37.3354,81.5184 37.502,84.5184 38,87.5C 38.7504,88.1258 39.5838,88.6258 40.5,89C 26.2216,86.4043 16.3883,78.2376 11,64.5C 4.16954,35.8086 14.6695,17.142 42.5,8.5 Z"/></g>
</svg>
