<?xml version="1.0" encoding="UTF-8"?>
<!DOCTYPE svg PUBLIC "-//W3C//DTD SVG 1.1//EN" "http://www.w3.org/Graphics/SVG/1.1/DTD/svg11.dtd">
<svg xmlns="http://www.w3.org/2000/svg" version="1.1" width="144px" height="144px" style="shape-rendering:geometricPrecision; text-rendering:geometricPrecision; image-rendering:optimizeQuality; fill-rule:evenodd; clip-rule:evenodd" xmlns:xlink="http://www.w3.org/1999/xlink">
<g><path style="opacity:0.949" fill="#f44235" d="M 78.5,11.5 C 80.4095,12.9746 81.5762,14.9746 82,17.5C 82.7673,21.5935 82.434,25.5935 81,29.5C 77.1304,36.376 72.1304,42.376 66,47.5C 64.1597,49.6808 62.9931,52.1808 62.5,55C 64.9224,61.6533 67.4224,68.1533 70,74.5C 65.3663,70.8679 61.033,66.8679 57,62.5C 52.1024,56.5613 51.4357,50.228 55,43.5C 62,36.8333 69,30.1667 76,23.5C 78.1318,19.7924 78.9651,15.7924 78.5,11.5 Z"/></g>
<g><path style="opacity:0.935" fill="#f44335" d="M 74.5,77.5 C 74.1667,77.5 73.8333,77.5 73.5,77.5C 75.0817,74.6649 76.415,71.6649 77.5,68.5C 75.5758,64.0671 73.4091,59.7338 71,55.5C 70.6941,44.1125 76.1941,36.9458 87.5,34C 91.1221,32.8944 94.7887,32.5611 98.5,33C 91.7921,36.7016 85.9588,41.5349 81,47.5C 80.5382,52.6044 81.8716,57.2711 85,61.5C 85.7581,69.5833 82.2581,74.9167 74.5,77.5 Z"/></g>
<g><path style="opacity:0.895" fill="#1564c0" d="M 73.5,77.5 C 73.8333,77.5 74.1667,77.5 74.5,77.5C 80.5711,77.4899 86.5711,76.8232 92.5,75.5C 93.1667,75.8333 93.8333,76.1667 94.5,76.5C 92.3102,78.524 89.9768,80.3573 87.5,82C 75.7454,83.7688 64.0787,84.9354 52.5,85.5C 51.609,84.8902 50.609,84.5569 49.5,84.5C 44.2059,84.6361 39.3726,83.3028 35,80.5C 33.6753,75.8117 35.5086,73.3117 40.5,73C 46.4518,71.6705 52.4518,71.3372 58.5,72C 54.8388,72.829 51.5054,74.329 48.5,76.5C 56.7771,78.5774 65.1104,78.9108 73.5,77.5 Z"/></g>
<g><path style="opacity:0.884" fill="#1564c0" d="M 99.5,71.5 C 110.138,70.3074 114.305,74.9741 112,85.5C 107.975,93.5922 101.475,97.7589 92.5,98C 97.0833,94.0877 100.917,89.5877 104,84.5C 104.777,77.7911 101.943,74.4577 95.5,74.5C 96.9014,73.4793 98.2347,72.4793 99.5,71.5 Z"/></g>
<g><path style="opacity:0.888" fill="#1564c0" d="M 49.5,84.5 C 50.609,84.5569 51.609,84.8902 52.5,85.5C 51.2935,86.8804 51.6269,88.0471 53.5,89C 63.4661,91.1565 73.2994,90.6565 83,87.5C 85.7412,88.7885 88.2412,90.4552 90.5,92.5C 85.7873,94.7642 80.7873,96.2642 75.5,97C 68.7536,97.2047 62.0869,97.7047 55.5,98.5C 55.5,98.1667 55.5,97.8333 55.5,97.5C 51.8059,96.5986 48.1392,95.2653 44.5,93.5C 43.5853,92.6721 42.9186,91.6721 42.5,90.5C 44.3068,87.7809 46.6402,85.7809 49.5,84.5 Z"/></g>
<g><path style="opacity:0.893" fill="#1564c0" d="M 55.5,97.5 C 55.5,97.8333 55.5,98.1667 55.5,98.5C 57.7586,100.755 60.592,101.755 64,101.5C 69.7708,101.057 75.4375,100.057 81,98.5C 91.1528,103.448 90.3195,106.614 78.5,108C 69.8271,109.956 61.1604,109.956 52.5,108C 50.5483,107.634 48.8816,106.801 47.5,105.5C 46.905,100.09 49.5717,97.423 55.5,97.5 Z"/></g>
<g><path style="opacity:0.894" fill="#1464c0" d="M 47.5,105.5 C 47.2249,107.758 46.2249,108.092 44.5,106.5C 35.3061,108.828 35.3061,111.328 44.5,114C 60.5033,117.305 76.5033,117.305 92.5,114C 98.6611,113.435 102.661,110.268 104.5,104.5C 109.738,108.059 109.738,111.893 104.5,116C 99.7639,118.435 94.7639,120.101 89.5,121C 76.2042,122.524 62.8708,122.857 49.5,122C 41.393,121.576 34.0597,119.076 27.5,114.5C 24.9984,108.49 26.9984,104.99 33.5,104C 38.4205,103.037 43.0871,103.537 47.5,105.5 Z"/></g>
<g><path style="opacity:0.817" fill="#1464c0" d="M 115.5,114.5 C 116.965,117.655 116.299,120.489 113.5,123C 106.775,127.243 99.4412,129.909 91.5,131C 73.9743,133.104 56.9743,131.104 40.5,125C 46.5062,125.221 52.5062,125.888 58.5,127C 77.4962,129.612 95.4962,126.612 112.5,118C 113.71,116.961 114.71,115.794 115.5,114.5 Z"/></g>
</svg>
