<?xml version="1.0" encoding="UTF-8"?>
<!DOCTYPE svg PUBLIC "-//W3C//DTD SVG 1.1//EN" "http://www.w3.org/Graphics/SVG/1.1/DTD/svg11.dtd">
<svg xmlns="http://www.w3.org/2000/svg" version="1.1" width="200px" height="200px" style="shape-rendering:geometricPrecision; text-rendering:geometricPrecision; image-rendering:optimizeQuality; fill-rule:evenodd; clip-rule:evenodd" xmlns:xlink="http://www.w3.org/1999/xlink">
<g><path style="opacity:0.855" fill="#202530" d="M 62.5,29.5 C 72.5553,28.2412 81.5553,30.7412 89.5,37C 92.9802,39.6458 96.3135,42.4791 99.5,45.5C 106.342,38.5766 114.342,33.4099 123.5,30C 136.394,26.8556 144.227,31.6889 147,44.5C 147.862,54.2517 147.362,63.9184 145.5,73.5C 158.08,75.5356 168.247,81.5356 176,91.5C 179.618,100.964 177.452,108.797 169.5,115C 162.332,120.418 154.332,123.918 145.5,125.5C 147.832,136.473 147.999,147.473 146,158.5C 141.731,168.548 134.231,172.048 123.5,169C 114.342,165.59 106.342,160.423 99.5,153.5C 92.6579,160.423 84.6579,165.59 75.5,169C 63.1782,172.094 55.3449,167.594 52,155.5C 51.123,145.415 51.623,135.415 53.5,125.5C 40.9195,123.464 30.7529,117.464 23,107.5C 19.3816,98.0359 21.5482,90.2026 29.5,84C 36.6677,78.5825 44.6677,75.0825 53.5,73.5C 51.623,63.5846 51.123,53.5846 52,43.5C 53.3588,37.0698 56.8588,32.4031 62.5,29.5 Z M 65.5,38.5 C 76.0322,39.1821 84.8656,43.5154 92,51.5C 91.956,53.2785 91.2893,54.9452 90,56.5C 87.1667,60 84.3333,63.5 81.5,67C 75.7173,68.2873 69.8839,69.4539 64,70.5C 63.5,70.1667 63,69.8333 62.5,69.5C 60.614,61.6063 60.114,53.6063 61,45.5C 61.9383,42.7435 63.4383,40.4101 65.5,38.5 Z M 125.5,38.5 C 132.042,36.8495 136.209,39.1828 138,45.5C 138.762,53.2146 138.429,60.8812 137,68.5C 136.612,69.428 135.945,70.0946 135,70.5C 129.116,69.4539 123.283,68.2873 117.5,67C 113.955,62.0769 110.288,57.2436 106.5,52.5C 112.009,46.5925 118.342,41.9258 125.5,38.5 Z M 98.5,59.5 C 108.159,66.9058 106.493,69.2392 93.5,66.5C 95.6049,64.4084 97.2716,62.0751 98.5,59.5 Z M 98.5,75.5 C 103.118,76.2188 107.785,76.7188 112.5,77C 117.294,83.4165 121.461,90.2499 125,97.5C 122.617,106.43 118.451,114.597 112.5,122C 108.113,122.226 103.779,122.726 99.5,123.5C 95.2207,122.726 90.8874,122.226 86.5,122C 80.5495,114.597 76.3828,106.43 74,97.5C 77.539,90.2499 81.7057,83.4165 86.5,77C 90.6877,76.8238 94.6877,76.3238 98.5,75.5 Z M 72.5,77.5 C 73.2389,77.369 73.9056,77.5357 74.5,78C 72.6976,81.3001 70.6976,84.4668 68.5,87.5C 67.3679,85.402 66.3679,83.2353 65.5,81C 67.5478,79.168 69.8811,78.0013 72.5,77.5 Z M 124.5,78.5 C 133.204,76.889 135.204,79.889 130.5,87.5C 128.441,84.4594 126.441,81.4594 124.5,78.5 Z M 55.5,81.5 C 58.1993,87.2487 60.5326,93.2487 62.5,99.5C 60.4335,105.533 58.2668,111.533 56,117.5C 22.19,105.692 22.0233,93.692 55.5,81.5 Z M 142.5,81.5 C 176.945,93.147 177.112,105.147 143,117.5C 140.733,111.533 138.567,105.533 136.5,99.5C 138.707,93.5442 140.707,87.5442 142.5,81.5 Z M 67.5,111.5 C 70.2994,114.16 72.6327,117.327 74.5,121C 71.8236,120.966 69.157,120.466 66.5,119.5C 66.1667,119 65.8333,118.5 65.5,118C 66.6094,115.953 67.2761,113.787 67.5,111.5 Z M 129.5,111.5 C 135.685,118.251 134.018,121.417 124.5,121C 126.426,117.924 128.092,114.758 129.5,111.5 Z M 62.5,128.5 C 68.8979,129.424 75.2313,130.59 81.5,132C 84.3333,135.5 87.1667,139 90,142.5C 91.2893,144.055 91.956,145.721 92,147.5C 85.8144,154.202 78.3144,158.535 69.5,160.5C 64.7275,160.564 61.8942,158.23 61,153.5C 60.1531,145.064 60.6531,136.731 62.5,128.5 Z M 133.5,128.5 C 135.124,128.36 136.29,129.027 137,130.5C 142.683,163.991 132.683,169.658 107,147.5C 107.044,145.721 107.711,144.055 109,142.5C 111.833,139 114.667,135.5 117.5,132C 122.94,130.83 128.273,129.663 133.5,128.5 Z M 93.5,131.5 C 97.5546,131.176 101.555,131.509 105.5,132.5C 103.5,134.833 101.5,137.167 99.5,139.5C 97.0663,137.079 95.0663,134.412 93.5,131.5 Z"/></g>
<g><path style="opacity:1" fill="#37b7cc" d="M 64.5,31.5 C 74.2861,31.5579 82.9528,34.7246 90.5,41C 93.062,44.0652 96.062,46.5652 99.5,48.5C 106.905,41.5946 115.239,36.0946 124.5,32C 135.722,29.86 142.556,34.36 145,45.5C 145.549,55.2985 144.882,64.9651 143,74.5C 154.658,77.3267 164.658,82.9934 173,91.5C 176.246,96.8033 176.246,102.137 173,107.5C 170.131,110.704 166.965,113.537 163.5,116C 156.405,119.219 149.405,122.385 142.5,125.5C 146.154,136.464 146.321,147.464 143,158.5C 139.167,166.122 133.001,168.955 124.5,167C 115.239,162.905 106.905,157.405 99.5,150.5C 92.4949,156.676 84.8282,161.843 76.5,166C 63.4629,169.893 55.9629,165.06 54,151.5C 53.0011,142.645 53.8344,133.979 56.5,125.5C 49.4925,122.438 42.4925,119.271 35.5,116C 19.5873,104.963 19.5873,93.9628 35.5,83C 41.9622,79.6795 48.6289,76.8461 55.5,74.5C 55.8333,73.8333 56.1667,73.1667 56.5,72.5C 53.9639,63.663 53.1306,54.663 54,45.5C 55.3472,39.1062 58.8472,34.4395 64.5,31.5 Z M 65.5,38.5 C 63.4383,40.4101 61.9383,42.7435 61,45.5C 60.114,53.6063 60.614,61.6063 62.5,69.5C 63,69.8333 63.5,70.1667 64,70.5C 69.8839,69.4539 75.7173,68.2873 81.5,67C 84.3333,63.5 87.1667,60 90,56.5C 91.2893,54.9452 91.956,53.2785 92,51.5C 84.8656,43.5154 76.0322,39.1821 65.5,38.5 Z M 125.5,38.5 C 118.342,41.9258 112.009,46.5925 106.5,52.5C 110.288,57.2436 113.955,62.0769 117.5,67C 123.283,68.2873 129.116,69.4539 135,70.5C 135.945,70.0946 136.612,69.428 137,68.5C 138.429,60.8812 138.762,53.2146 138,45.5C 136.209,39.1828 132.042,36.8495 125.5,38.5 Z M 98.5,59.5 C 97.2716,62.0751 95.6049,64.4084 93.5,66.5C 106.493,69.2392 108.159,66.9058 98.5,59.5 Z M 98.5,75.5 C 94.6877,76.3238 90.6877,76.8238 86.5,77C 81.7057,83.4165 77.539,90.2499 74,97.5C 76.3828,106.43 80.5495,114.597 86.5,122C 90.8874,122.226 95.2207,122.726 99.5,123.5C 103.779,122.726 108.113,122.226 112.5,122C 118.451,114.597 122.617,106.43 125,97.5C 121.461,90.2499 117.294,83.4165 112.5,77C 107.785,76.7188 103.118,76.2188 98.5,75.5 Z M 72.5,77.5 C 69.8811,78.0013 67.5478,79.168 65.5,81C 66.3679,83.2353 67.3679,85.402 68.5,87.5C 70.6976,84.4668 72.6976,81.3001 74.5,78C 73.9056,77.5357 73.2389,77.369 72.5,77.5 Z M 124.5,78.5 C 126.441,81.4594 128.441,84.4594 130.5,87.5C 135.204,79.889 133.204,76.889 124.5,78.5 Z M 55.5,81.5 C 22.0233,93.692 22.19,105.692 56,117.5C 58.2668,111.533 60.4335,105.533 62.5,99.5C 60.5326,93.2487 58.1993,87.2487 55.5,81.5 Z M 142.5,81.5 C 140.707,87.5442 138.707,93.5442 136.5,99.5C 138.567,105.533 140.733,111.533 143,117.5C 177.112,105.147 176.945,93.147 142.5,81.5 Z M 67.5,111.5 C 67.2761,113.787 66.6094,115.953 65.5,118C 65.8333,118.5 66.1667,119 66.5,119.5C 69.157,120.466 71.8236,120.966 74.5,121C 72.6327,117.327 70.2994,114.16 67.5,111.5 Z M 129.5,111.5 C 128.092,114.758 126.426,117.924 124.5,121C 134.018,121.417 135.685,118.251 129.5,111.5 Z M 62.5,128.5 C 60.6531,136.731 60.1531,145.064 61,153.5C 61.8942,158.23 64.7275,160.564 69.5,160.5C 78.3144,158.535 85.8144,154.202 92,147.5C 91.956,145.721 91.2893,144.055 90,142.5C 87.1667,139 84.3333,135.5 81.5,132C 75.2313,130.59 68.8979,129.424 62.5,128.5 Z M 133.5,128.5 C 128.273,129.663 122.94,130.83 117.5,132C 114.667,135.5 111.833,139 109,142.5C 107.711,144.055 107.044,145.721 107,147.5C 132.683,169.658 142.683,163.991 137,130.5C 136.29,129.027 135.124,128.36 133.5,128.5 Z M 93.5,131.5 C 95.0663,134.412 97.0663,137.079 99.5,139.5C 101.5,137.167 103.5,134.833 105.5,132.5C 101.555,131.509 97.5546,131.176 93.5,131.5 Z"/></g>
<g><path style="opacity:0.84" fill="#202833" d="M 65.5,35.5 C 78.2729,36.7198 88.6062,42.3864 96.5,52.5C 91.6434,58.189 86.9767,64.0224 82.5,70C 75.0831,70.7498 67.7497,71.9164 60.5,73.5C 57.9221,64.3371 57.0888,55.0038 58,45.5C 59.2133,41.1305 61.7133,37.7972 65.5,35.5 Z M 65.5,38.5 C 63.4383,40.4101 61.9383,42.7435 61,45.5C 60.114,53.6063 60.614,61.6063 62.5,69.5C 63,69.8333 63.5,70.1667 64,70.5C 69.8839,69.4539 75.7173,68.2873 81.5,67C 84.3333,63.5 87.1667,60 90,56.5C 91.2893,54.9452 91.956,53.2785 92,51.5C 84.8656,43.5154 76.0322,39.1821 65.5,38.5 Z"/></g>
<g><path style="opacity:0.854" fill="#212934" d="M 125.5,35.5 C 137.386,35.3955 142.719,41.3955 141.5,53.5C 141.147,60.2832 140.147,66.9498 138.5,73.5C 131.163,72.4439 123.829,71.2772 116.5,70C 112.023,64.0224 107.357,58.189 102.5,52.5C 108.985,45.1052 116.652,39.4385 125.5,35.5 Z M 125.5,38.5 C 118.342,41.9258 112.009,46.5925 106.5,52.5C 110.288,57.2436 113.955,62.0769 117.5,67C 123.283,68.2873 129.116,69.4539 135,70.5C 135.945,70.0946 136.612,69.428 137,68.5C 138.429,60.8812 138.762,53.2146 138,45.5C 136.209,39.1828 132.042,36.8495 125.5,38.5 Z"/></g>
<g><path style="opacity:0.895" fill="#202630" d="M 98.5,56.5 C 103.457,59.4573 107.457,63.4573 110.5,68.5C 103.167,69.8333 95.8333,69.8333 88.5,68.5C 91.4797,64.1886 94.813,60.1886 98.5,56.5 Z M 98.5,59.5 C 97.2716,62.0751 95.6049,64.4084 93.5,66.5C 106.493,69.2392 108.159,66.9058 98.5,59.5 Z"/></g>
<g><path style="opacity:0.855" fill="#202631" d="M 84.5,73.5 C 94.5222,73.1681 104.522,73.5015 114.5,74.5C 119.927,82.3484 124.594,90.6817 128.5,99.5C 124.718,108.237 120.052,116.403 114.5,124C 104.534,125.698 94.5345,125.865 84.5,124.5C 79.0731,116.652 74.4064,108.318 70.5,99.5C 74.683,90.4607 79.3496,81.794 84.5,73.5 Z M 98.5,75.5 C 94.6877,76.3238 90.6877,76.8238 86.5,77C 81.7057,83.4165 77.539,90.2499 74,97.5C 76.3828,106.43 80.5495,114.597 86.5,122C 90.8874,122.226 95.2207,122.726 99.5,123.5C 103.779,122.726 108.113,122.226 112.5,122C 118.451,114.597 122.617,106.43 125,97.5C 121.461,90.2499 117.294,83.4165 112.5,77C 107.785,76.7188 103.118,76.2188 98.5,75.5 Z"/></g>
<g><path style="opacity:0.861" fill="#202732" d="M 75.5,74.5 C 76.5,74.5 77.5,74.5 78.5,74.5C 78.6495,75.552 78.4828,76.552 78,77.5C 74.6667,82.8333 71.3333,88.1667 68,93.5C 65.7739,88.8225 63.9406,83.9891 62.5,79C 62.9054,78.0546 63.572,77.3879 64.5,77C 68.3474,76.3666 72.014,75.5333 75.5,74.5 Z M 72.5,77.5 C 69.8811,78.0013 67.5478,79.168 65.5,81C 66.3679,83.2353 67.3679,85.402 68.5,87.5C 70.6976,84.4668 72.6976,81.3001 74.5,78C 73.9056,77.5357 73.2389,77.369 72.5,77.5 Z"/></g>
<g><path style="opacity:0.86" fill="#202530" d="M 120.5,75.5 C 125.946,75.3642 131.28,76.0309 136.5,77.5C 135.369,83.0597 133.536,88.393 131,93.5C 127.224,87.609 123.724,81.609 120.5,75.5 Z M 124.5,78.5 C 126.441,81.4594 128.441,84.4594 130.5,87.5C 135.204,79.889 133.204,76.889 124.5,78.5 Z"/></g>
<g><path style="opacity:0.851" fill="#202732" d="M 55.5,78.5 C 57.4109,78.5743 58.5776,79.5743 59,81.5C 60.8914,87.6128 63.0581,93.6128 65.5,99.5C 62.7243,106.705 59.7243,113.705 56.5,120.5C 18.3704,106.942 18.0371,92.9415 55.5,78.5 Z M 55.5,81.5 C 22.0233,93.692 22.19,105.692 56,117.5C 58.2668,111.533 60.4335,105.533 62.5,99.5C 60.5326,93.2487 58.1993,87.2487 55.5,81.5 Z"/></g>
<g><path style="opacity:0.84" fill="#202731" d="M 141.5,78.5 C 150.591,80.7124 158.924,84.5457 166.5,90C 173.56,98.051 172.56,105.051 163.5,111C 156.766,115.134 149.6,118.301 142,120.5C 139.182,113.525 136.348,106.525 133.5,99.5C 136.173,92.4769 138.84,85.4769 141.5,78.5 Z M 142.5,81.5 C 140.707,87.5442 138.707,93.5442 136.5,99.5C 138.567,105.533 140.733,111.533 143,117.5C 177.112,105.147 176.945,93.147 142.5,81.5 Z"/></g>
<g><path style="opacity:0.926" fill="#1f232d" d="M 93.5,83.5 C 112.778,82.6097 119.278,91.2764 113,109.5C 106.055,116.069 98.2221,117.236 89.5,113C 82.9307,106.055 81.7641,98.2221 86,89.5C 88.1141,86.8792 90.6141,84.8792 93.5,83.5 Z"/></g>
<g><path style="opacity:1" fill="#38bdd3" d="M 95.5,87.5 C 108.018,87.5049 112.851,93.5049 110,105.5C 102.966,113.413 95.9656,113.413 89,105.5C 85.8203,97.5325 87.987,91.5325 95.5,87.5 Z"/></g>
<g><path style="opacity:0.869" fill="#212833" d="M 67.5,105.5 C 68.4584,105.953 69.2917,106.619 70,107.5C 73.141,113.104 75.9744,118.771 78.5,124.5C 73.4367,123.823 68.4367,122.823 63.5,121.5C 63.1667,120.833 62.8333,120.167 62.5,119.5C 63.7797,114.659 65.4464,109.992 67.5,105.5 Z M 67.5,111.5 C 67.2761,113.787 66.6094,115.953 65.5,118C 65.8333,118.5 66.1667,119 66.5,119.5C 69.157,120.466 71.8236,120.966 74.5,121C 72.6327,117.327 70.2994,114.16 67.5,111.5 Z"/></g>
<g><path style="opacity:0.87" fill="#202731" d="M 130.5,105.5 C 133.852,110.21 135.852,115.543 136.5,121.5C 132.72,122.403 128.886,123.069 125,123.5C 123.5,123.167 122,122.833 120.5,122.5C 124.097,116.97 127.43,111.304 130.5,105.5 Z M 129.5,111.5 C 128.092,114.758 126.426,117.924 124.5,121C 134.018,121.417 135.685,118.251 129.5,111.5 Z"/></g>
<g><path style="opacity:0.832" fill="#202833" d="M 60.5,125.5 C 67.7687,126.989 75.1021,128.156 82.5,129C 87.5511,135.008 92.0511,141.175 96,147.5C 88.6761,155.988 79.5095,161.322 68.5,163.5C 62.506,162.337 59.006,158.671 58,152.5C 57.131,143.328 57.9644,134.328 60.5,125.5 Z M 62.5,128.5 C 60.6531,136.731 60.1531,145.064 61,153.5C 61.8942,158.23 64.7275,160.564 69.5,160.5C 78.3144,158.535 85.8144,154.202 92,147.5C 91.956,145.721 91.2893,144.055 90,142.5C 87.1667,139 84.3333,135.5 81.5,132C 75.2313,130.59 68.8979,129.424 62.5,128.5 Z"/></g>
<g><path style="opacity:0.832" fill="#212934" d="M 134.5,125.5 C 138.352,125.489 140.185,127.489 140,131.5C 141.397,138.452 141.73,145.452 141,152.5C 139.302,161.207 134.135,164.707 125.5,163C 116.737,158.959 109.071,153.459 102.5,146.5C 107.357,140.811 112.023,134.978 116.5,129C 122.697,128.138 128.697,126.971 134.5,125.5 Z M 133.5,128.5 C 128.273,129.663 122.94,130.83 117.5,132C 114.667,135.5 111.833,139 109,142.5C 107.711,144.055 107.044,145.721 107,147.5C 132.683,169.658 142.683,163.991 137,130.5C 136.29,129.027 135.124,128.36 133.5,128.5 Z"/></g>
<g><path style="opacity:0.894" fill="#1f232e" d="M 89.5,129.5 C 96.1667,129.5 102.833,129.5 109.5,129.5C 107.399,134.665 104.065,138.998 99.5,142.5C 94.578,139.262 91.2446,134.929 89.5,129.5 Z M 93.5,131.5 C 95.0663,134.412 97.0663,137.079 99.5,139.5C 101.5,137.167 103.5,134.833 105.5,132.5C 101.555,131.509 97.5546,131.176 93.5,131.5 Z"/></g>
</svg>
