<?xml version="1.0" encoding="UTF-8"?>
<!DOCTYPE svg PUBLIC "-//W3C//DTD SVG 1.1//EN" "http://www.w3.org/Graphics/SVG/1.1/DTD/svg11.dtd">
<svg xmlns="http://www.w3.org/2000/svg" version="1.1" width="144px" height="144px" style="shape-rendering:geometricPrecision; text-rendering:geometricPrecision; image-rendering:optimizeQuality; fill-rule:evenodd; clip-rule:evenodd" xmlns:xlink="http://www.w3.org/1999/xlink">
<g><path style="opacity:0.96" fill="#00acc1" d="M 143.5,42.5 C 143.5,43.8333 143.5,45.1667 143.5,46.5C 135.333,67.4244 120,75.5911 97.5,71C 91.178,69.6717 85.5113,67.0051 80.5,63C 74.9648,56.1186 68.2981,50.7853 60.5,47C 50.1762,45.4107 42.0095,48.9107 36,57.5C 39.2752,37.7452 51.1086,27.7452 71.5,27.5C 79.7552,27.6466 87.4219,29.8133 94.5,34C 99.8012,38.2998 104.801,42.9664 109.5,48C 116.027,53.5224 123.361,54.8558 131.5,52C 135.95,49.3807 139.95,46.2141 143.5,42.5 Z"/></g>
<g><path style="opacity:0.961" fill="#00acc1" d="M -0.5,100.5 C -0.5,99.1667 -0.5,97.8333 -0.5,96.5C 7.66657,75.5756 22.9999,67.4089 45.5,72C 51.822,73.3283 57.4887,75.9949 62.5,80C 68.0352,86.8814 74.7019,92.2147 82.5,96C 92.8238,97.5893 100.99,94.0893 107,85.5C 103.725,105.255 91.8914,115.255 71.5,115.5C 63.2448,115.353 55.5781,113.187 48.5,109C 43.1988,104.7 38.1988,100.034 33.5,95C 26.9727,89.4776 19.6393,88.1442 11.5,91C 7.04956,93.6193 3.04956,96.7859 -0.5,100.5 Z"/></g>
</svg>
