<?xml version="1.0" encoding="UTF-8"?>
<svg version="1.1" xmlns="http://www.w3.org/2000/svg" width="100" height="100">
<path d="M0 0 C2.8012126 1.3474895 3.89156422 2.56718948 6 5 C6.33 6.65 6.66 8.3 7 10 C32.08 10 57.16 10 83 10 C83 33.76 83 57.52 83 82 C60.03102185 82.20054405 60.03102185 82.20054405 50.234375 82.24414062 C43.55155572 82.27402117 36.86907922 82.30935592 30.18652344 82.37719727 C24.79837413 82.43155499 19.41059245 82.46142877 14.02219009 82.47438622 C11.96726825 82.48361926 9.91236635 82.50164945 7.85760117 82.52865028 C4.97738035 82.5649902 2.09867519 82.56994323 -0.78173828 82.56762695 C-1.62978531 82.58560333 -2.47783234 82.60357971 -3.35157776 82.62210083 C-7.54525306 82.58564941 -10.1911954 82.27237712 -13.51364136 79.58952332 C-17.19681849 75.75352279 -17.13610021 73.85912312 -17.19287109 68.62597656 C-17.20104858 67.97207947 -17.20922607 67.31818237 -17.21765137 66.64447021 C-17.24249908 64.47653111 -17.2590215 62.30865755 -17.2734375 60.140625 C-17.27876118 59.39973381 -17.28408485 58.65884262 -17.28956985 57.89550018 C-17.31630146 53.97233617 -17.33567441 50.04920394 -17.35009766 46.12597656 C-17.3634278 42.88219952 -17.39126174 39.63905293 -17.43212891 36.39550781 C-17.48150224 32.47683504 -17.50622451 28.55873341 -17.51332474 24.63976288 C-17.52002927 23.14863605 -17.53523084 21.65752156 -17.55921555 20.16657257 C-17.75843387 7.03090727 -17.75843387 7.03090727 -14.59228516 3.10058594 C-9.96724331 -0.64718766 -5.82302487 -0.79364351 0 0 Z M-10.3125 6.8125 C-12.85330681 10.10613845 -13.1240984 12.71850911 -13.11352539 16.74682617 C-13.11344986 17.70759567 -13.11337433 18.66836517 -13.11329651 19.6582489 C-13.10813522 20.69270645 -13.10297394 21.727164 -13.09765625 22.79296875 C-13.0962413 23.85413406 -13.09482635 24.91529938 -13.09336853 26.00862122 C-13.08776606 29.40160935 -13.07521314 32.79453177 -13.0625 36.1875 C-13.05748532 38.48632717 -13.05292236 40.78515538 -13.04882812 43.08398438 C-13.03779583 48.72267872 -13.0210553 54.36133466 -13 60 C-11.515 59.505 -11.515 59.505 -10 59 C-8.33541327 58.90691456 -6.66718003 58.87003815 -5 58.875 C-4.13375 58.87242188 -3.2675 58.86984375 -2.375 58.8671875 C0 59 0 59 3 60 C3.07620013 53.27399978 3.12866292 46.54811132 3.16479492 39.82177734 C3.17986116 37.53462565 3.20031797 35.24750275 3.22631836 32.96044922 C3.26279606 29.66887293 3.27974834 26.37767938 3.29296875 23.0859375 C3.30845261 22.06696381 3.32393646 21.04799011 3.33988953 19.99813843 C3.34116437 14.5940021 3.13912346 10.62974203 0 6 C-3.79531479 4.10234261 -6.97321965 4.19522621 -10.3125 6.8125 Z M54 26 C55.32 27.65 56.64 29.3 58 31 C56.59155282 34.21524305 54.89655214 36.32183868 52.375 38.75 C51.74335937 39.36359375 51.11171875 39.9771875 50.4609375 40.609375 C49.73777344 41.29773438 49.73777344 41.29773438 49 42 C45.78475695 40.59155282 43.67816132 38.89655214 41.25 36.375 C40.63640625 35.74335937 40.0228125 35.11171875 39.390625 34.4609375 C38.93171875 33.97882812 38.4728125 33.49671875 38 33 C33.21949544 34.49002739 30.25531083 37.14461047 26.6875 40.5 C26.13771484 40.99886719 25.58792969 41.49773438 25.02148438 42.01171875 C23.63673119 43.29498071 22.31280657 44.64322383 21 46 C21 46.66 21 47.32 21 48 C25.28553996 47.52042767 27.76931405 44.7812778 30.75 41.9375 C31.25660156 41.46505859 31.76320313 40.99261719 32.28515625 40.50585938 C33.52949613 39.34369289 34.76558064 38.17269839 36 37 C39.21524305 38.40844718 41.32183868 40.10344786 43.75 42.625 C44.36359375 43.25664063 44.9771875 43.88828125 45.609375 44.5390625 C46.06828125 45.02117188 46.5271875 45.50328125 47 46 C50.68069887 44.46356148 52.98775204 42.21849055 55.75 39.375 C56.54921875 38.55773438 57.3484375 37.74046875 58.171875 36.8984375 C58.77515625 36.27195312 59.3784375 35.64546875 60 35 C62.49361571 36.20381448 64.68143083 37.45428722 67 39 C67 34.71 67 30.42 67 26 C62.71 26 58.42 26 54 26 Z M17 60 C17 61.32 17 62.64 17 64 C33.5 64 50 64 67 64 C67 62.68 67 61.36 67 60 C50.5 60 34 60 17 60 Z " fill="#000000" transform="translate(17,4)"/>
</svg>
