<?xml version="1.0" encoding="UTF-8"?>
<svg version="1.1" xmlns="http://www.w3.org/2000/svg" width="50" height="50">
<path d="M0 0 C0.88042969 -0.020625 1.76085937 -0.04125 2.66796875 -0.0625 C3.93060547 -0.07023438 3.93060547 -0.07023438 5.21875 -0.078125 C5.99154297 -0.0874707 6.76433594 -0.09681641 7.56054688 -0.10644531 C8.20056641 0.01118164 8.84058594 0.12880859 9.5 0.25 C10.16 1.24 10.82 2.23 11.5 3.25 C12.098125 3.023125 12.69625 2.79625 13.3125 2.5625 C15.5 2.25 15.5 2.25 17.3125 3.375 C18.5 5.25 18.5 5.25 18.1875 7.9375 C17.960625 8.700625 17.73375 9.46375 17.5 10.25 C18.49 10.58 19.48 10.91 20.5 11.25 C20.6875 14.125 20.6875 14.125 20.5 17.25 C19.51 17.91 18.52 18.57 17.5 19.25 C17.71398438 19.82492188 17.92796875 20.39984375 18.1484375 20.9921875 C18.61152617 23.96624585 17.80673718 24.93137084 16.125 27.375 C15.66351563 28.05820312 15.20203125 28.74140625 14.7265625 29.4453125 C14.32179687 30.04085937 13.91703125 30.63640625 13.5 31.25 C12.36203769 33.52592463 12.22965157 35.22383275 12 37.75 C11.61111111 42.02777778 11.61111111 42.02777778 10.5 44.25 C3.9 44.25 -2.7 44.25 -9.5 44.25 C-9.5 42.93 -9.5 41.61 -9.5 40.25 C-10.61375 40.29125 -11.7275 40.3325 -12.875 40.375 C-16.5 40.25 -16.5 40.25 -18.5 38.25 C-18.9140625 35.8671875 -18.9140625 35.8671875 -19.125 33.125 C-19.19976563 32.21492188 -19.27453125 31.30484375 -19.3515625 30.3671875 C-19.40054687 29.66851562 -19.44953125 28.96984375 -19.5 28.25 C-20.82 27.92 -22.14 27.59 -23.5 27.25 C-22.92752161 21.98183581 -21.71300829 17.47497781 -19.75 12.5625 C-19.51023437 11.91216797 -19.27046875 11.26183594 -19.0234375 10.59179688 C-15.20647792 0.94118514 -9.23639823 0.05409311 0 0 Z M5.5 4.25 C5.025625 4.745 4.55125 5.24 4.0625 5.75 C2.5 7.25 2.5 7.25 -0.5 7.25 C-0.603125 8.03375 -0.70625 8.8175 -0.8125 9.625 C-1.5 12.25 -1.5 12.25 -4.5 14.25 C-3.84 14.848125 -3.18 15.44625 -2.5 16.0625 C-0.5 18.25 -0.5 18.25 -0.5 21.25 C0.304375 21.37375 1.10875 21.4975 1.9375 21.625 C3.2059375 21.934375 3.2059375 21.934375 4.5 22.25 C4.83 22.91 5.16 23.57 5.5 24.25 C6.16 24.25 6.82 24.25 7.5 24.25 C7.974375 23.755 8.44875 23.26 8.9375 22.75 C10.5 21.25 10.5 21.25 13.5 21.25 C13.603125 20.486875 13.70625 19.72375 13.8125 18.9375 C14.54364039 16.07940576 15.26951913 15.09257115 17.5 13.25 C16.51 12.92 15.52 12.59 14.5 12.25 C14.17 10.6 13.84 8.95 13.5 7.25 C12.695625 7.12625 11.89125 7.0025 11.0625 6.875 C10.216875 6.66875 9.37125 6.4625 8.5 6.25 C8.17 5.59 7.84 4.93 7.5 4.25 C6.84 4.25 6.18 4.25 5.5 4.25 Z " fill="#000000" transform="translate(26.5,2.75)"/>
<path d="M0 0 C3 0.25 3 0.25 5 2.25 C5.25 5.25 5.25 5.25 5 8.25 C3 10.25 3 10.25 0 10.5 C-3 10.25 -3 10.25 -5 8.25 C-5.25 5.25 -5.25 5.25 -5 2.25 C-3 0.25 -3 0.25 0 0 Z M-2 3.25 C-2 4.57 -2 5.89 -2 7.25 C-0.68 7.25 0.64 7.25 2 7.25 C2 5.93 2 4.61 2 3.25 C0.68 3.25 -0.64 3.25 -2 3.25 Z " fill="#000000" transform="translate(33,11.75)"/>
</svg>
