<?xml version="1.0" standalone="no"?>
<!DOCTYPE svg PUBLIC "-//W3C//DTD SVG 20010904//EN"
 "http://www.w3.org/TR/2001/REC-SVG-20010904/DTD/svg10.dtd">
<svg version="1.0" xmlns="http://www.w3.org/2000/svg"
 width="249.000000pt" height="316.000000pt" viewBox="0 0 249.000000 316.000000"
 preserveAspectRatio="xMidYMid meet">

<g transform="translate(0.000000,316.000000) scale(0.100000,-0.100000)"
fill="#000000" stroke="none">
<path d="M1400 3038 c0 -15 50 -68 64 -68 15 0 66 52 66 67 0 19 -14 16 -35
-7 -10 -11 -23 -20 -30 -20 -7 0 -20 9 -30 20 -20 23 -35 26 -35 8z"/>
<path d="M1115 2991 c-11 -5 -25 -6 -32 -4 -20 8 -120 -26 -187 -63 -81 -44
-143 -99 -189 -166 -40 -58 -87 -177 -87 -221 0 -15 -9 -54 -20 -86 -10 -32
-22 -96 -26 -142 -4 -59 -11 -88 -23 -98 -14 -11 -13 -12 9 -6 20 7 23 5 14
-6 -10 -14 -10 -126 2 -211 7 -56 -23 -169 -57 -211 -11 -15 -16 -27 -10 -27
28 0 101 164 101 229 0 16 4 21 14 18 11 -5 16 7 21 51 4 31 9 65 11 75 3 9 0
17 -6 17 -6 0 -9 4 -5 10 10 16 35 -1 33 -23 0 -12 2 -38 6 -58 5 -23 4 -39
-3 -43 -24 -15 -11 -54 28 -86 22 -17 49 -46 60 -64 22 -35 28 -76 11 -76 -5
0 -10 5 -10 11 0 8 -5 7 -15 -1 -13 -10 -19 -9 -36 6 -32 29 -76 126 -50 110
15 -9 14 7 -1 22 -16 16 -40 -14 -84 -107 -65 -136 -86 -208 -79 -276 4 -33 9
-69 11 -80 4 -16 3 -17 -5 -5 -8 11 -10 5 -9 -26 1 -25 -6 -56 -20 -82 -26
-50 -27 -59 -7 -42 20 17 20 -5 0 -53 -20 -47 -19 -68 2 -42 14 19 15 17 9
-29 -8 -61 -20 -76 -62 -76 -39 0 -44 17 -19 77 19 44 19 49 1 33 -17 -14 -51
-108 -48 -131 2 -11 -9 -21 -30 -28 -105 -37 -265 -110 -289 -133 l-29 -26 2
-454 3 -453 1238 -3 1237 -2 -2 482 -3 483 -145 48 c-284 93 -286 94 -326 148
-20 27 -37 55 -38 62 -1 6 -5 17 -8 22 -13 22 -76 203 -98 285 -13 47 -33 117
-46 155 -12 39 -28 89 -34 113 -11 42 -33 56 -44 27 -3 -8 -12 -15 -20 -15 -9
0 -20 -9 -26 -19 -12 -24 -13 -94 -1 -106 5 -6 16 -37 25 -70 13 -51 13 -57 0
-41 -22 31 -17 11 15 -52 19 -37 34 -88 40 -137 6 -43 23 -103 36 -133 14 -30
25 -56 25 -58 0 -9 -62 21 -67 32 -3 8 -9 11 -14 8 -5 -3 -9 7 -8 23 0 15 3
22 6 15 2 -6 9 -10 13 -7 5 3 4 18 -2 33 -6 15 -10 37 -10 49 2 26 -73 242
-92 268 -12 16 -15 14 -36 -20 -20 -33 -26 -61 -36 -199 -15 -184 -30 -239
-105 -384 l-51 -96 6 -75 c5 -59 1 -102 -17 -193 -21 -102 -28 -122 -55 -150
-18 -17 -29 -34 -27 -37 3 -2 11 1 17 7 20 20 30 14 26 -15 -3 -24 -9 -29 -43
-35 -72 -12 -147 -8 -214 12 -124 37 -118 28 -177 261 -28 112 -48 206 -44
209 4 3 10 21 14 41 5 26 -1 54 -20 105 -25 68 -26 79 -5 159 10 39 8 60 -18
285 -5 41 -7 77 -6 78 2 2 34 -21 72 -51 94 -76 157 -112 236 -136 65 -20 72
-20 136 -5 39 8 93 30 125 51 68 42 69 54 1 16 -60 -33 -191 -47 -271 -28 -54
12 -172 81 -241 140 -52 44 -109 150 -123 228 -6 32 -24 104 -40 160 -32 109
-36 159 -19 219 7 29 16 39 37 45 15 3 33 15 40 25 7 10 30 27 50 37 34 17 42
17 97 4 107 -24 145 -27 145 -12 -1 28 -27 47 -80 58 -89 17 -155 17 -184 -2
-14 -9 -28 -17 -31 -17 -9 0 41 93 62 115 11 11 30 52 43 90 30 87 47 112 82
120 29 7 98 -3 98 -14 0 -4 -14 -22 -31 -39 -36 -36 -24 -44 12 -9 24 23 110
69 139 74 8 1 54 5 102 9 79 6 89 5 117 -16 18 -12 46 -50 63 -83 17 -34 42
-75 55 -91 13 -16 33 -46 44 -67 l19 -39 -25 12 c-63 28 -267 -60 -214 -93 9
-5 3 -18 -20 -44 -31 -35 -31 -38 -15 -56 21 -23 37 -24 54 -3 12 13 16 12 35
-13 20 -25 25 -26 49 -15 14 6 26 18 26 27 0 19 11 19 34 2 15 -11 17 -17 7
-35 -10 -19 -21 -22 -79 -23 -54 0 -62 -2 -42 -10 44 -18 122 3 167 44 l22 20
-21 37 c-17 29 -34 42 -72 55 -27 10 -56 18 -63 18 -41 0 41 38 85 39 56 2
138 -52 152 -100 22 -77 30 -170 20 -223 -6 -29 -8 -54 -6 -56 9 -10 37 51 39
87 2 42 6 47 24 29 15 -15 28 102 15 128 -6 11 -11 80 -10 154 0 205 -38 327
-138 446 -24 28 -44 56 -44 61 0 25 -84 81 -153 102 -40 12 -87 28 -105 36
-38 16 -68 18 -77 5 -3 -6 -18 -6 -38 0 -38 11 -94 11 -122 0z m-518 -633 c-3
-8 -6 -5 -6 6 -1 11 2 17 5 13 3 -3 4 -12 1 -19z m4 -81 c-8 -8 -11 -5 -11 9
0 27 14 41 18 19 2 -9 -1 -22 -7 -28z m954 -37 c17 -19 17 -19 -21 -18 -44 2
-93 23 -72 31 31 12 76 6 93 -13z m-131 -35 c-29 -22 -42 -17 -15 6 13 11 26
17 29 14 3 -3 -3 -12 -14 -20z m-666 -271 c-4 -3 -12 5 -18 18 -12 22 -12 22
6 6 10 -10 15 -20 12 -24z m1080 -466 c18 -70 23 -98 18 -98 -6 0 -46 126 -46
142 0 23 18 -5 28 -44z m-8 -138 c0 -8 12 -38 26 -65 15 -28 22 -45 16 -40
-19 19 -62 108 -62 129 0 17 2 18 10 6 5 -8 10 -22 10 -30z m143 -157 c22 -25
10 -30 -26 -12 -25 14 -37 28 -37 47 0 8 5 10 13 6 6 -4 4 1 -5 12 -15 17 -58
115 -58 132 0 4 21 -31 46 -78 26 -47 56 -95 67 -107z"/>
<path d="M1240 2300 c0 -5 5 -10 10 -10 6 0 10 5 10 10 0 6 -4 10 -10 10 -5 0
-10 -4 -10 -10z"/>
<path d="M1035 2240 c-3 -5 -1 -10 5 -10 6 0 8 -4 5 -10 -3 -5 -16 -10 -29
-10 -12 0 -26 -3 -30 -7 -3 -4 -17 -8 -29 -10 -21 -3 -21 -2 3 13 l25 15 -25
-7 c-35 -9 -83 -37 -87 -51 -5 -14 73 -73 96 -72 11 0 10 3 -5 9 -30 12 -39
42 -18 57 14 10 22 8 46 -12 33 -28 55 -24 69 12 9 24 10 25 34 9 32 -21 68
-6 63 27 -5 37 -106 75 -123 47z m85 -55 c16 -19 0 -19 -26 0 -16 12 -16 14
-3 15 9 0 22 -7 29 -15z"/>
<path d="M1076 2113 c-2 -2 -20 -4 -40 -5 -38 -1 -62 -17 -29 -19 55 -3 113 7
113 20 0 6 -38 10 -44 4z"/>
<path d="M411 2084 c-12 -15 -21 -31 -21 -37 0 -12 -1 -13 29 31 27 38 21 43
-8 6z"/>
<path d="M1320 1905 c-11 -13 -7 -15 26 -15 36 1 38 2 20 15 -25 19 -31 19
-46 0z"/>
<path d="M1161 1896 c-10 -12 -6 -14 24 -13 20 1 34 6 32 11 -6 17 -43 18 -56
2z"/>
<path d="M1140 1725 c-14 -8 -33 -14 -42 -15 -10 0 -18 -4 -18 -10 0 -15 52
-11 74 5 11 8 38 16 60 16 39 1 40 2 11 9 -45 11 -58 11 -85 -5z"/>
<path d="M1350 1731 c0 -6 8 -11 18 -11 10 0 27 -7 38 -14 20 -15 64 -11 64 4
0 4 -15 10 -32 13 -18 3 -45 9 -60 12 -18 5 -28 3 -28 -4z"/>
</g>
</svg>
