<?xml version="1.0" encoding="UTF-8"?>
<svg version="1.1" xmlns="http://www.w3.org/2000/svg" width="100" height="100">
<path d="M0 0 C1.21879852 0.00607269 1.21879852 0.00607269 2.46221924 0.01226807 C3.31761292 0.00876343 4.17300659 0.00525879 5.05432129 0.00164795 C7.89088988 -0.00717764 10.72721047 -0.00131732 13.56378174 0.00543213 C15.52911426 0.00408572 17.49444646 0.00214538 19.45977783 -0.00036621 C23.58236863 -0.0033186 27.70487286 0.00098385 31.82745361 0.01031494 C37.12064503 0.02170953 42.41363365 0.01515067 47.70681763 0.00317001 C51.76618995 -0.0040455 55.82551394 -0.00176208 59.8848877 0.0034256 C61.83699568 0.00476295 63.78910802 0.0031114 65.74121094 -0.00153351 C68.46604089 -0.00659367 71.1905391 0.00110425 73.91534424 0.01226807 C74.72787659 0.0082196 75.54040894 0.00417114 76.37756348 0 C81.96025361 0.042529 81.96025361 0.042529 84.18878174 2.27105713 C84.42929077 4.52365112 84.42929077 4.52365112 84.41583252 7.36334229 C84.41568146 8.42429108 84.4155304 9.48523987 84.41537476 10.57833862 C84.40505219 11.72732635 84.39472961 12.87631409 84.38409424 14.06011963 C84.38126434 15.23368011 84.37843445 16.4072406 84.3755188 17.61636353 C84.36429529 21.37636375 84.33918666 25.13612852 84.31378174 28.89605713 C84.30375475 31.44032453 84.29462841 33.98459565 84.28643799 36.52886963 C84.26434888 42.77634623 84.23084998 49.02368486 84.18878174 55.27105713 C86.16878174 55.76605713 86.16878174 55.76605713 88.18878174 56.27105713 C88.06309814 57.24945557 88.06309814 57.24945557 87.93487549 58.24761963 C87.3632407 63.15354856 87.03566191 67.40232898 88.18878174 72.27105713 C86.20878174 72.93105713 84.22878174 73.59105713 82.18878174 74.27105713 C81.85878174 76.91105713 81.52878174 79.55105713 81.18878174 82.27105713 C79.97190674 82.18855713 78.75503174 82.10605713 77.50128174 82.02105713 C74.02238648 81.99634029 73.25045509 82.22994156 70.18878174 84.27105713 C69.52878174 84.93105713 68.86878174 85.59105713 68.18878174 86.27105713 C65.21684323 85.14653986 62.85437487 84.04811921 60.18878174 82.27105713 C57.85678786 82.19200649 55.52045552 82.18306944 53.18878174 82.27105713 C52.69378174 78.31105713 52.69378174 78.31105713 52.18878174 74.27105713 C48.43743524 73.09980339 44.69246562 73.05045848 40.79815674 72.95465088 C39.74123627 72.92347923 39.74123627 72.92347923 38.66296387 72.89167786 C36.42166493 72.82651876 34.1802531 72.76745465 31.93878174 72.70855713 C30.41533277 72.66533987 28.89189503 72.62172456 27.36846924 72.57769775 C23.64202583 72.47087221 19.9154568 72.36951074 16.18878174 72.27105713 C16.18878174 68.31105713 16.18878174 64.35105713 16.18878174 60.27105713 C14.53878174 60.27105713 12.88878174 60.27105713 11.18878174 60.27105713 C9.90265498 61.33084646 9.90265498 61.33084646 10.09112549 63.77496338 C10.10272705 64.78429932 10.11432861 65.79363525 10.12628174 66.83355713 C10.13530518 67.84547119 10.14432861 68.85738525 10.15362549 69.89996338 C10.16522705 70.68242432 10.17682861 71.46488525 10.18878174 72.27105713 C7.56350985 72.32487819 4.93933461 72.36464026 2.31378174 72.39605713 C1.56741455 72.41281494 0.82104736 72.42957275 0.05206299 72.44683838 C-1.90316287 72.46445303 -3.85863848 72.37425902 -5.81121826 72.27105713 C-8.60744408 69.47483131 -8.06480317 67.75024395 -8.07000732 63.83355713 C-8.07351196 63.17323486 -8.0770166 62.5129126 -8.08062744 61.83258057 C-8.08944508 59.6452998 -8.08359569 57.4583413 -8.07684326 55.27105713 C-8.07818991 53.75412941 -8.08013044 52.23720212 -8.0826416 50.72027588 C-8.0855929 47.53924454 -8.0812951 44.35832543 -8.07196045 41.17730713 C-8.06056583 37.09477811 -8.06712528 33.01251204 -8.07910538 28.92999268 C-8.08632387 25.79707855 -8.08403612 22.66422702 -8.07884979 19.53131104 C-8.07751326 18.02577687 -8.07916114 16.52023706 -8.0838089 15.01470947 C-8.08887405 12.91250501 -8.08116454 10.81072955 -8.07000732 8.70855713 C-8.06841614 7.51101807 -8.06682495 6.313479 -8.06518555 5.07965088 C-7.57861716 -0.30125052 -4.72754666 0.0360145 0 0 Z M14.25128174 17.27105713 C12.92617227 21.01254269 12.5823212 24.37128556 13.18878174 28.27105713 C14.1730032 30.2788689 15.17112247 32.27998465 16.18878174 34.27105713 C16.05987549 36.78668213 16.05987549 36.78668213 15.18878174 39.27105713 C13.15753174 40.71246338 13.15753174 40.71246338 10.68878174 41.83355713 C8.2341355 42.88490822 8.2341355 42.88490822 6.18878174 44.27105713 C5.85878174 45.59105713 5.52878174 46.91105713 5.18878174 48.27105713 C15.08878174 48.27105713 24.98878174 48.27105713 35.18878174 48.27105713 C34.62456497 44.22088836 34.62456497 44.22088836 31.90362549 42.56793213 C30.98710205 42.05746338 30.07057861 41.54699463 29.12628174 41.02105713 C28.20718018 40.50027588 27.28807861 39.97949463 26.34112549 39.44293213 C25.63085205 39.05621338 24.92057861 38.66949463 24.18878174 38.27105713 C24.60616932 35.27977945 25.01299111 32.66400088 26.25128174 29.89605713 C27.61784676 26.06967506 27.57667608 23.34394774 27.18878174 19.27105713 C25.79193168 16.62406993 25.79193168 16.62406993 23.18878174 15.27105713 C18.1676725 14.45010971 18.1676725 14.45010971 14.25128174 17.27105713 Z M46.18878174 22.27105713 C46.18878174 23.59105713 46.18878174 24.91105713 46.18878174 26.27105713 C54.76878174 26.27105713 63.34878174 26.27105713 72.18878174 26.27105713 C72.18878174 24.95105713 72.18878174 23.63105713 72.18878174 22.27105713 C63.60878174 22.27105713 55.02878174 22.27105713 46.18878174 22.27105713 Z M46.18878174 34.27105713 C46.18878174 35.59105713 46.18878174 36.91105713 46.18878174 38.27105713 C54.76878174 38.27105713 63.34878174 38.27105713 72.18878174 38.27105713 C72.18878174 36.95105713 72.18878174 35.63105713 72.18878174 34.27105713 C63.60878174 34.27105713 55.02878174 34.27105713 46.18878174 34.27105713 Z M66.18878174 49.27105713 C65.52878174 49.93105713 64.86878174 50.59105713 64.18878174 51.27105713 C61.06378174 51.39605713 61.06378174 51.39605713 58.18878174 51.27105713 C58.12690674 52.21980713 58.06503174 53.16855713 58.00128174 54.14605713 C57.73315674 55.17730713 57.46503174 56.20855713 57.18878174 57.27105713 C54.62628174 58.64605713 54.62628174 58.64605713 52.18878174 59.27105713 C52.37440674 60.36418213 52.56003174 61.45730713 52.75128174 62.58355713 C53.18878174 66.27105713 53.18878174 66.27105713 52.18878174 69.27105713 C53.39534424 69.58043213 53.39534424 69.58043213 54.62628174 69.89605713 C55.47190674 70.34980713 56.31753174 70.80355713 57.18878174 71.27105713 C58.00128174 74.39605713 58.00128174 74.39605713 58.18878174 77.27105713 C59.09628174 77.22980713 60.00378174 77.18855713 60.93878174 77.14605713 C64.06698633 77.26637269 65.57492179 77.66252793 68.18878174 79.27105713 C68.84878174 78.61105713 69.50878174 77.95105713 70.18878174 77.27105713 C73.31378174 77.14605713 73.31378174 77.14605713 76.18878174 77.27105713 C76.25065674 76.32230713 76.31253174 75.37355713 76.37628174 74.39605713 C76.64440674 73.36480713 76.91253174 72.33355713 77.18878174 71.27105713 C79.75128174 69.89605713 79.75128174 69.89605713 82.18878174 69.27105713 C82.00315674 68.17793213 81.81753174 67.08480713 81.62628174 65.95855713 C81.18878174 62.27105713 81.18878174 62.27105713 82.18878174 59.27105713 C80.98221924 58.96168213 80.98221924 58.96168213 79.75128174 58.64605713 C78.90565674 58.19230713 78.06003174 57.73855713 77.18878174 57.27105713 C76.37628174 54.14605713 76.37628174 54.14605713 76.18878174 51.27105713 C75.28128174 51.31230713 74.37378174 51.35355713 73.43878174 51.39605713 C70.31057714 51.27574157 68.80264168 50.87958633 66.18878174 49.27105713 Z " fill="#000000" transform="translate(11.81121826171875,13.72894287109375)"/>
</svg>
