<?xml version="1.0" encoding="UTF-8"?>
<!DOCTYPE svg PUBLIC "-//W3C//DTD SVG 1.1//EN" "http://www.w3.org/Graphics/SVG/1.1/DTD/svg11.dtd">
<svg xmlns="http://www.w3.org/2000/svg" version="1.1" width="240px" height="240px" style="shape-rendering:geometricPrecision; text-rendering:geometricPrecision; image-rendering:optimizeQuality; fill-rule:evenodd; clip-rule:evenodd" xmlns:xlink="http://www.w3.org/1999/xlink">
<g><path style="opacity:0.967" fill="#fbfdfe" d="M 45.5,14.5 C 63.4446,13.0556 80.6113,16.0556 97,23.5C 100.647,21.729 104.48,20.5623 108.5,20C 122.094,20.3847 135.428,18.7181 148.5,15C 177.291,10.6951 200.124,20.1951 217,43.5C 219.964,55.0616 220.298,66.7282 218,78.5C 213.507,100.319 205.673,120.819 194.5,140C 198.476,140.074 202.476,139.907 206.5,139.5C 217.305,139.474 221.805,144.807 220,155.5C 212.828,166.347 202.661,172.514 189.5,174C 184.511,174.499 179.511,174.666 174.5,174.5C 174.666,183.839 174.5,193.173 174,202.5C 170.227,221.945 158.56,232.612 139,234.5C 130.077,234.538 123.077,230.872 118,223.5C 110.283,208.803 107.283,193.136 109,176.5C 95.9484,181.668 82.9484,181.335 70,175.5C 57.037,182.665 46.037,180.332 37,168.5C 24.7246,147.43 16.7246,124.763 13,100.5C 8.42764,83.614 7.76098,66.614 11,49.5C 16.0245,31.3096 27.5245,19.6429 45.5,14.5 Z"/></g>
<g><path style="opacity:1" fill="#0778bd" d="M 47.5,24.5 C 61.0467,23.958 74.0467,26.2913 86.5,31.5C 72.8924,45.7229 65.559,62.7229 64.5,82.5C 65.3808,97.1637 65.5475,111.83 65,126.5C 67.8453,135.011 72.6787,142.178 79.5,148C 73.7341,154.855 67.7341,161.522 61.5,168C 56.4428,170.351 51.9428,169.518 48,165.5C 43.9104,160.327 40.577,154.66 38,148.5C 26.3547,119.607 20.3547,89.607 20,58.5C 22.0799,41.2692 31.2466,29.9358 47.5,24.5 Z"/></g>
<g><path style="opacity:1" fill="#0c78bd" d="M 150.5,24.5 C 171.994,22.384 190.16,29.0506 205,44.5C 206.861,46.8877 208.194,49.5544 209,52.5C 209.667,58.1667 209.667,63.8333 209,69.5C 204.683,94.4524 196.016,117.786 183,139.5C 181.637,138.107 180.804,136.441 180.5,134.5C 183.178,128.969 184.511,123.135 184.5,117C 183.997,110.483 183.331,103.983 182.5,97.5C 183.849,88.1978 184.349,78.8645 184,69.5C 177.232,50.4046 165.066,35.9046 147.5,26C 148.737,25.7679 149.737,25.2679 150.5,24.5 Z"/></g>
<g><path style="opacity:1" fill="#0777bd" d="M 110.5,29.5 C 140.786,27.9709 161.786,41.1376 173.5,69C 155.735,71.0903 148.235,80.9237 151,98.5C 155.243,114.651 162.409,129.318 172.5,142.5C 168.653,147.194 166.153,152.527 165,158.5C 164.667,171.5 164.333,184.5 164,197.5C 162.262,210.89 155.095,219.724 142.5,224C 139.036,224.817 135.702,224.483 132.5,223C 125.116,216.538 120.949,208.371 120,198.5C 119.667,184.167 119.333,169.833 119,155.5C 115.708,150.204 111.208,146.371 105.5,144C 115.273,124.211 117.107,103.711 111,82.5C 106.72,73.8568 99.7195,69.8568 90,70.5C 85.6949,70.3968 81.5282,71.0634 77.5,72.5C 78.7178,56.2373 86.0512,43.404 99.5,34C 103.157,32.1776 106.824,30.6776 110.5,29.5 Z"/></g>
<g><path style="opacity:1" fill="#0e79be" d="M 85.5,79.5 C 91.4644,78.599 96.4644,80.2657 100.5,84.5C 97.614,84.7104 94.614,84.8771 91.5,85C 89.7174,86.0665 89.2174,87.5665 90,89.5C 93.1773,94.768 97.344,95.768 102.5,92.5C 104.938,102.074 105.105,111.741 103,121.5C 100.383,129.182 97.8834,136.849 95.5,144.5C 85.2546,141.422 78.4213,134.756 75,124.5C 75.4132,112.155 75.2465,99.8212 74.5,87.5C 74.6858,85.4205 75.6858,83.9205 77.5,83C 80.3093,81.9066 82.976,80.7399 85.5,79.5 Z"/></g>
<g><path style="opacity:1" fill="#408cc8" d="M 173.5,104.5 C 172.514,100.03 172.181,95.3633 172.5,90.5C 172.714,88.8561 172.38,87.3561 171.5,86C 168.623,84.8732 165.623,84.2065 162.5,84C 166.015,81.217 170.015,79.717 174.5,79.5C 173.668,87.8048 173.335,96.1381 173.5,104.5 Z"/></g>
<g><path style="opacity:1" fill="#147bbf" d="M 172.5,90.5 C 172.181,95.3633 172.514,100.03 173.5,104.5C 173.88,108.823 174.214,113.156 174.5,117.5C 174.614,120.364 174.114,123.03 173,125.5C 167.738,116.308 163.571,106.642 160.5,96.5C 160.667,95.5 160.833,94.5 161,93.5C 165.514,95.2179 169.347,94.2179 172.5,90.5 Z"/></g>
<g><path style="opacity:1" fill="#167bbf" d="M 180.5,149.5 C 183.835,150.852 187.335,151.519 191,151.5C 197.169,150.785 203.335,150.119 209.5,149.5C 209.919,152.325 208.919,154.491 206.5,156C 196.859,162.548 186.193,165.381 174.5,164.5C 174.183,158.428 176.183,153.428 180.5,149.5 Z"/></g>
<g><path style="opacity:1" fill="#117abe" d="M 96.5,154.5 C 101.312,154.073 105.478,155.406 109,158.5C 109.944,161.347 109.444,163.847 107.5,166C 96.5462,170.803 85.7129,170.636 75,165.5C 74.5547,163.406 75.388,161.906 77.5,161C 84.1835,159.512 90.5169,157.345 96.5,154.5 Z"/></g>
</svg>
