<?xml version="1.0" encoding="UTF-8"?>
<!DOCTYPE svg PUBLIC "-//W3C//DTD SVG 1.1//EN" "http://www.w3.org/Graphics/SVG/1.1/DTD/svg11.dtd">
<svg xmlns="http://www.w3.org/2000/svg" version="1.1" width="96px" height="96px" style="shape-rendering:geometricPrecision; text-rendering:geometricPrecision; image-rendering:optimizeQuality; fill-rule:evenodd; clip-rule:evenodd" xmlns:xlink="http://www.w3.org/1999/xlink">
<g><path style="opacity:0.981" fill="#f4511e" d="M 43.5,9.5 C 46.6492,9.21138 49.6492,9.71138 52.5,11C 63,21.5 73.5,32 84,42.5C 86,45.8333 86,49.1667 84,52.5C 73.5,63 63,73.5 52.5,84C 49.1667,86 45.8333,86 42.5,84C 32,73.5 21.5,63 11,52.5C 9.54321,49.634 9.20988,46.634 10,43.5C 17.7088,35.4563 25.7088,27.7896 34,20.5C 39.8938,23.3784 42.8938,28.045 43,34.5C 43.6667,35.1667 44.3333,35.8333 45,36.5C 45.8315,44.1883 45.6648,51.855 44.5,59.5C 41.2539,63.9704 42.2539,67.3037 47.5,69.5C 49.2581,68.8721 50.7581,67.8721 52,66.5C 50.5892,60.668 49.7559,54.5013 49.5,48C 49.6667,44.1667 49.8333,40.3333 50,36.5C 52.6667,39.1667 55.3333,41.8333 58,44.5C 57.4078,49.0589 59.2411,52.0589 63.5,53.5C 68.7969,51.2133 69.7969,47.7133 66.5,43C 57.6667,42.1667 52.8333,37.3333 52,28.5C 49.4926,26.8447 46.6592,26.0114 43.5,26C 41.3333,23.8333 39.1667,21.6667 37,19.5C 36.3333,18.5 36.3333,17.5 37,16.5C 39.3722,14.2968 41.5389,11.9635 43.5,9.5 Z"/></g>
</svg>
