<?xml version="1.0" encoding="UTF-8"?>
<!DOCTYPE svg PUBLIC "-//W3C//DTD SVG 1.1//EN" "http://www.w3.org/Graphics/SVG/1.1/DTD/svg11.dtd">
<svg xmlns="http://www.w3.org/2000/svg" version="1.1" width="144px" height="144px" style="shape-rendering:geometricPrecision; text-rendering:geometricPrecision; image-rendering:optimizeQuality; fill-rule:evenodd; clip-rule:evenodd" xmlns:xlink="http://www.w3.org/1999/xlink">
<g><path style="opacity:1" fill="#fed500" d="M 17.5,17.5 C 53.5,17.5 89.5,17.5 125.5,17.5C 125.5,53.5 125.5,89.5 125.5,125.5C 89.5,125.5 53.5,125.5 17.5,125.5C 17.5,89.5 17.5,53.5 17.5,17.5 Z"/></g>
<g><path style="opacity:1" fill="#050401" d="M 65.5,65.5 C 68.8333,65.5 72.1667,65.5 75.5,65.5C 75.6666,78.1711 75.4999,90.8377 75,103.5C 72.8572,110.52 68.0238,113.853 60.5,113.5C 53.8878,112.55 48.8878,109.216 45.5,103.5C 48.086,101.957 50.586,100.291 53,98.5C 54.5,100 56,101.5 57.5,103C 59.7695,103.758 61.9361,103.591 64,102.5C 65.4598,90.267 65.9598,77.9337 65.5,65.5 Z"/></g>
<g><path style="opacity:1" fill="#0c0902" d="M 91.5,65.5 C 99.4616,64.1557 105.795,66.6557 110.5,73C 108.301,74.6971 105.968,76.1971 103.5,77.5C 100.462,74.4703 96.9619,73.8036 93,75.5C 92.3333,77.1667 92.3333,78.8333 93,80.5C 97.9261,83.7142 103.093,86.5475 108.5,89C 115.266,96.6443 114.933,103.978 107.5,111C 96.1776,116.287 87.1776,113.787 80.5,103.5C 83.086,101.957 85.586,100.291 88,98.5C 91.7481,104.673 96.7481,106.007 103,102.5C 103.667,100.833 103.667,99.1667 103,97.5C 97.8513,94.6694 92.6847,91.8361 87.5,89C 79.8722,79.55 81.2056,71.7167 91.5,65.5 Z"/></g>
</svg>
