<?xml version="1.0" encoding="UTF-8"?>
<!DOCTYPE svg PUBLIC "-//W3C//DTD SVG 1.1//EN" "http://www.w3.org/Graphics/SVG/1.1/DTD/svg11.dtd">
<svg xmlns="http://www.w3.org/2000/svg" version="1.1" width="96px" height="96px" style="shape-rendering:geometricPrecision; text-rendering:geometricPrecision; image-rendering:optimizeQuality; fill-rule:evenodd; clip-rule:evenodd" xmlns:xlink="http://www.w3.org/1999/xlink">
<g><path style="opacity:1" fill="#3d3d3d" d="M 55.5,1.5 C 58.5287,3.37197 60.6954,6.03864 62,9.5C 63,16.5 64,23.5 65,30.5C 68.0822,34.7336 70.9155,39.0669 73.5,43.5C 70.8844,40.5454 68.2177,37.5454 65.5,34.5C 63.5975,37.2991 61.9308,40.2991 60.5,43.5C 58.5912,39.3342 56.9245,35.0008 55.5,30.5C 58.1272,27.6228 57.7939,24.9561 54.5,22.5C 56.0774,18.8034 55.7441,15.3034 53.5,12C 51.8876,11.2797 50.3876,11.4464 49,12.5C 47.7978,14.6775 47.2978,17.0108 47.5,19.5C 46.1667,19.5 44.8333,19.5 43.5,19.5C 44.2232,15.6104 42.8898,12.9437 39.5,11.5C 41.0265,8.28121 42.6932,5.11454 44.5,2C 47.903,0.0704579 51.2364,0.237125 54.5,2.5C 55.1067,2.37642 55.44,2.04309 55.5,1.5 Z"/></g>
<g><path style="opacity:1" fill="#eeeeed" d="M 39.5,11.5 C 42.8898,12.9437 44.2232,15.6104 43.5,19.5C 42.8333,19.5 42.1667,19.5 41.5,19.5C 41.8244,16.306 40.6578,15.306 38,16.5C 37.5065,18.1341 37.3398,19.8008 37.5,21.5C 37.5,22.1667 37.1667,22.5 36.5,22.5C 35.5651,19.8872 35.3985,17.2205 36,14.5C 36.4224,12.5743 37.5891,11.5743 39.5,11.5 Z"/></g>
<g><path style="opacity:1" fill="#ededec" d="M 54.5,22.5 C 53.8333,22.5 53.5,22.1667 53.5,21.5C 53.9492,19.0225 53.2825,17.0225 51.5,15.5C 49.7826,16.6685 49.1159,18.3352 49.5,20.5C 48.8333,20.1667 48.1667,19.8333 47.5,19.5C 47.2978,17.0108 47.7978,14.6775 49,12.5C 50.3876,11.4464 51.8876,11.2797 53.5,12C 55.7441,15.3034 56.0774,18.8034 54.5,22.5 Z"/></g>
<g><path style="opacity:1" fill="#504e4c" d="M 41.5,19.5 C 40.4863,20.6737 39.153,21.3404 37.5,21.5C 37.3398,19.8008 37.5065,18.1341 38,16.5C 40.6578,15.306 41.8244,16.306 41.5,19.5 Z"/></g>
<g><path style="opacity:1" fill="#454543" d="M 53.5,21.5 C 52.1667,21.1667 50.8333,20.8333 49.5,20.5C 49.1159,18.3352 49.7826,16.6685 51.5,15.5C 53.2825,17.0225 53.9492,19.0225 53.5,21.5 Z"/></g>
<g><path style="opacity:1" fill="#f7bd3b" d="M 41.5,19.5 C 42.1667,19.5 42.8333,19.5 43.5,19.5C 44.8333,19.5 46.1667,19.5 47.5,19.5C 48.1667,19.8333 48.8333,20.1667 49.5,20.5C 50.8333,20.8333 52.1667,21.1667 53.5,21.5C 53.5,22.1667 53.8333,22.5 54.5,22.5C 57.7939,24.9561 58.1272,27.6228 55.5,30.5C 51.8646,32.9371 47.8646,34.6037 43.5,35.5C 40.2691,35.2179 37.6024,33.8846 35.5,31.5C 32.7327,28.2142 33.0661,25.2142 36.5,22.5C 37.1667,22.5 37.5,22.1667 37.5,21.5C 39.153,21.3404 40.4863,20.6737 41.5,19.5 Z"/></g>
<g><path style="opacity:1" fill="#4b4a4a" d="M 41.5,-0.5 C 45.5,-0.5 49.5,-0.5 53.5,-0.5C 54.1667,0.166667 54.8333,0.833333 55.5,1.5C 55.44,2.04309 55.1067,2.37642 54.5,2.5C 51.2364,0.237125 47.903,0.0704579 44.5,2C 42.6932,5.11454 41.0265,8.28121 39.5,11.5C 37.5891,11.5743 36.4224,12.5743 36,14.5C 35.3985,17.2205 35.5651,19.8872 36.5,22.5C 33.0661,25.2142 32.7327,28.2142 35.5,31.5C 30.5176,41.7783 26.5176,52.4449 23.5,63.5C 22.1667,63.5 20.8333,63.5 19.5,63.5C 21.9752,51.5772 26.1419,40.2438 32,29.5C 32.8904,22.1434 33.8904,14.8101 35,7.5C 36.3046,4.03864 38.4713,1.37197 41.5,-0.5 Z"/></g>
<g><path style="opacity:1" fill="#fbfbfb" d="M 55.5,30.5 C 56.9245,35.0008 58.5912,39.3342 60.5,43.5C 62.5864,51.3541 63.5864,59.3541 63.5,67.5C 62.0337,68.347 61.2004,69.6803 61,71.5C 60.0775,75.7901 59.5775,80.1234 59.5,84.5C 52.6806,86.6631 45.6806,87.6631 38.5,87.5C 37.4937,82.8225 34.9937,79.1558 31,76.5C 28.9935,71.8123 26.4935,67.4789 23.5,63.5C 26.5176,52.4449 30.5176,41.7783 35.5,31.5C 37.6024,33.8846 40.2691,35.2179 43.5,35.5C 47.8646,34.6037 51.8646,32.9371 55.5,30.5 Z"/></g>
<g><path style="opacity:1" fill="#2b2a2a" d="M 73.5,43.5 C 78.5087,49.8796 80.5087,57.213 79.5,65.5C 79.1451,74.0167 74.8118,77.1833 66.5,75C 64.253,73.005 63.253,70.505 63.5,67.5C 63.5864,59.3541 62.5864,51.3541 60.5,43.5C 61.9308,40.2991 63.5975,37.2991 65.5,34.5C 68.2177,37.5454 70.8844,40.5454 73.5,43.5 Z"/></g>
<g><path style="opacity:1" fill="#fabe3a" d="M 19.5,63.5 C 20.8333,63.5 22.1667,63.5 23.5,63.5C 26.4935,67.4789 28.9935,71.8123 31,76.5C 34.9937,79.1558 37.4937,82.8225 38.5,87.5C 38.552,89.9029 38.2186,92.2362 37.5,94.5C 36.8333,94.5 36.5,94.8333 36.5,95.5C 33.8333,95.5 31.1667,95.5 28.5,95.5C 21.8827,92.7555 15.0494,90.4222 8,88.5C 7.33333,83.1667 7.33333,77.8333 8,72.5C 10.3976,71.1437 12.8976,69.9771 15.5,69C 16.0322,66.5368 17.3655,64.7035 19.5,63.5 Z"/></g>
<g><path style="opacity:1" fill="#f8b41e" d="M 79.5,65.5 C 80.1174,65.6107 80.6174,65.944 81,66.5C 80.6353,71.7628 82.6353,75.7628 87,78.5C 87.6667,80.5 87.6667,82.5 87,84.5C 84.022,86.3824 80.8553,87.8824 77.5,89C 75.2707,91.4003 72.9374,93.567 70.5,95.5C 67.5,95.5 64.5,95.5 61.5,95.5C 60.3995,94.3951 59.7329,93.0618 59.5,91.5C 59.5,89.1667 59.5,86.8333 59.5,84.5C 59.5775,80.1234 60.0775,75.7901 61,71.5C 61.2004,69.6803 62.0337,68.347 63.5,67.5C 63.253,70.505 64.253,73.005 66.5,75C 74.8118,77.1833 79.1451,74.0167 79.5,65.5 Z"/></g>
<g><path style="opacity:1" fill="#302f2e" d="M 59.5,84.5 C 59.5,86.8333 59.5,89.1667 59.5,91.5C 51.9019,91.074 44.5686,92.074 37.5,94.5C 38.2186,92.2362 38.552,89.9029 38.5,87.5C 45.6806,87.6631 52.6806,86.6631 59.5,84.5 Z"/></g>
</svg>
