<?xml version="1.0" standalone="no"?>
<!DOCTYPE svg PUBLIC "-//W3C//DTD SVG 20010904//EN"
 "http://www.w3.org/TR/2001/REC-SVG-20010904/DTD/svg10.dtd">
<svg version="1.0" xmlns="http://www.w3.org/2000/svg"
 width="512.000000pt" height="512.000000pt" viewBox="0 0 512.000000 512.000000"
 preserveAspectRatio="xMidYMid meet">

<g transform="translate(0.000000,512.000000) scale(0.100000,-0.100000)"
fill="#000000" stroke="none">
<path d="M2365 5114 c-660 -68 -1183 -311 -1622 -755 -405 -410 -640 -890
-725 -1484 -8 -55 -13 -182 -12 -325 1 -260 17 -397 74 -622 234 -923 997
-1661 1930 -1868 193 -42 309 -54 540 -54 306 -1 538 33 774 112 148 49 213
89 316 192 207 207 270 490 173 782 l-26 79 131 132 c119 121 132 137 147 190
27 94 4 186 -64 254 -16 16 -207 132 -424 257 -443 254 -460 261 -561 232 -55
-16 -71 -29 -192 -147 -170 -166 -167 -165 -314 -40 -153 130 -469 457 -533
551 -9 13 -17 40 -17 58 0 29 16 49 129 166 118 121 131 137 147 192 29 101
22 118 -232 561 -125 217 -241 408 -257 424 -68 68 -160 91 -254 64 -53 -16
-69 -28 -201 -158 -79 -78 -157 -160 -172 -183 -245 -352 119 -1167 831 -1859
292 -283 582 -496 879 -644 322 -160 588 -213 777 -156 26 8 49 15 50 15 1 0
13 -33 25 -72 34 -108 32 -254 -6 -363 -70 -205 -211 -332 -441 -399 -468
-135 -972 -125 -1428 27 -1199 401 -1884 1640 -1586 2867 166 680 641 1269
1274 1580 320 157 622 233 980 247 829 32 1629 -381 2090 -1076 126 -191 213
-372 285 -590 186 -564 154 -1175 -91 -1726 -27 -60 -49 -118 -49 -128 0 -30
19 -57 47 -68 42 -16 78 5 104 59 188 396 272 797 256 1217 -8 195 -26 325
-73 515 -180 730 -682 1353 -1358 1684 -361 177 -676 254 -1076 261 -113 1
-223 1 -245 -1z m-736 -1221 c47 -44 461 -773 461 -811 0 -23 -11 -44 -37 -72
-20 -23 -39 -37 -44 -33 -4 4 -75 127 -159 273 -83 146 -161 273 -172 283 -47
40 -128 5 -128 -56 0 -21 54 -125 171 -327 l171 -298 -35 -44 c-61 -81 -72
-180 -28 -266 63 -124 590 -650 714 -714 83 -42 186 -31 263 27 l34 26 77 -41
c83 -45 113 -46 146 -8 17 20 22 63 11 92 -3 9 -31 30 -62 47 l-55 32 46 44
c35 32 54 43 78 43 24 0 131 -57 408 -216 207 -118 388 -229 404 -245 34 -37
36 -87 4 -124 l-22 -26 -281 160 c-309 177 -333 185 -373 135 -29 -36 -26 -70
7 -102 15 -15 137 -90 272 -166 135 -77 247 -141 249 -143 3 -2 -13 -21 -34
-43 -38 -39 -41 -40 -106 -40 -162 0 -346 53 -574 165 -316 155 -650 408 -956
723 -489 503 -799 1062 -799 1441 0 66 1 68 44 110 l44 43 18 -31 c45 -76 154
-56 154 30 0 15 -12 48 -27 74 l-26 48 22 19 c34 27 85 23 120 -9z"/>
</g>
</svg>
